{
	"asset":{
		"generator":"Khronos glTF Blender I/O v4.4.56",
		"version":"2.0"
	},
	"extensionsUsed":[
		"KHR_materials_specular",
		"KHR_materials_unlit"
	],
	"scene":0,
	"scenes":[
		{
			"name":"Scene",
			"nodes":[
				7
			]
		}
	],
	"nodes":[
		{
			"mesh":0,
			"name":"Bird",
			"rotation":[
				0,
				-1,
				0,
				4.371138828673793e-08
			],
			"scale":[
				0.03999999910593033,
				0.03999999910593033,
				0.03999999910593033
			],
			"translation":[
				0.026895983144640923,
				1.401241660118103,
				0.5938904285430908
			]
		},
		{
			"mesh":1,
			"name":"Catdoll",
			"rotation":[
				-0.06160959601402283,
				0.0016106331022456288,
				-0.02608395926654339,
				0.997758150100708
			],
			"scale":[
				0.021822847425937653,
				0.021822847425937653,
				0.021822847425937653
			],
			"translation":[
				0.5898081064224243,
				0.33916616439819336,
				-0.18425174057483673
			]
		},
		{
			"mesh":2,
			"name":"Desk"
		},
		{
			"mesh":3,
			"name":"Items",
			"rotation":[
				-0.5000001788139343,
				0.4999999403953552,
				0.5,
				0.5000000596046448
			],
			"scale":[
				0.8930001854896545,
				1.0199999809265137,
				1.0200001001358032
			],
			"translation":[
				-0.13654106855392456,
				0.6314282417297363,
				0
			]
		},
		{
			"mesh":4,
			"name":"Lamp",
			"translation":[
				0,
				0.01984991505742073,
				1.000561237335205
			]
		},
		{
			"mesh":5,
			"name":"PenHolder",
			"translation":[
				-0.01306658610701561,
				0.6336233615875244,
				0.4313240349292755
			]
		},
		{
			"mesh":6,
			"name":"Rug",
			"translation":[
				0.923226535320282,
				0,
				-0.13686251640319824
			]
		},
		{
			"children":[
				0,
				1,
				2,
				3,
				4,
				5,
				6
			],
			"name":"Workspace"
		}
	],
	"materials":[
		{
			"doubleSided":true,
			"emissiveFactor":[
				0.5,
				0.5,
				0.5
			],
			"emissiveTexture":{
				"index":0,
				"texCoord":1
			},
			"extensions":{
				"KHR_materials_specular":{
					"specularFactor":0
				}
			},
			"name":"BirdMaterial",
			"pbrMetallicRoughness":{
				"baseColorTexture":{
					"index":1,
					"texCoord":1
				},
				"metallicFactor":0
			}
		},
		{
			"doubleSided":true,
			"extensions":{
				"KHR_materials_unlit":{}
			},
			"name":"CatdollMaterial",
			"pbrMetallicRoughness":{
				"baseColorTexture":{
					"index":2
				},
				"metallicFactor":0,
				"roughnessFactor":0.9
			}
		},
		{
			"doubleSided":true,
			"name":"DeskMaterial",
			"normalTexture":{
				"index":3,
				"texCoord":1
			},
			"pbrMetallicRoughness":{
				"baseColorTexture":{
					"index":4,
					"texCoord":1
				},
				"metallicRoughnessTexture":{
					"index":5,
					"texCoord":1
				}
			}
		},
		{
			"doubleSided":true,
			"name":"ItemsMaterial",
			"normalTexture":{
				"index":6,
				"texCoord":1
			},
			"pbrMetallicRoughness":{
				"baseColorTexture":{
					"index":7,
					"texCoord":1
				},
				"metallicRoughnessTexture":{
					"index":8,
					"texCoord":1
				}
			}
		},
		{
			"doubleSided":true,
			"emissiveFactor":[
				1,
				1,
				0.41254302859306335
			],
			"name":"LampLight.001",
			"pbrMetallicRoughness":{
				"baseColorFactor":[
					1,
					0.9999176859855652,
					0.1764020472764969,
					1
				],
				"metallicFactor":0,
				"roughnessFactor":0.5
			}
		},
		{
			"doubleSided":true,
			"name":"LampMaterial.001",
			"pbrMetallicRoughness":{
				"baseColorTexture":{
					"index":9,
					"texCoord":1
				},
				"metallicRoughnessTexture":{
					"index":10,
					"texCoord":1
				},
				"roughnessFactor":0.5
			}
		},
		{
			"doubleSided":true,
			"name":"PenHolderMaterial",
			"pbrMetallicRoughness":{
				"baseColorTexture":{
					"index":11,
					"texCoord":2
				},
				"metallicRoughnessTexture":{
					"index":12,
					"texCoord":2
				}
			}
		},
		{
			"doubleSided":true,
			"name":"Contour",
			"pbrMetallicRoughness":{
				"baseColorFactor":[
					0.10455399751663208,
					0.04081699997186661,
					0.018015999346971512,
					1
				],
				"metallicFactor":0,
				"roughnessFactor":0.9838082790374756
			}
		},
		{
			"doubleSided":true,
			"name":"RugMaterial",
			"pbrMetallicRoughness":{
				"baseColorTexture":{
					"index":13
				},
				"metallicFactor":0
			}
		}
	],
	"meshes":[
		{
			"name":"Bird.001",
			"primitives":[
				{
					"attributes":{
						"POSITION":0,
						"NORMAL":1,
						"TEXCOORD_0":2,
						"TEXCOORD_1":3
					},
					"indices":4,
					"material":0
				}
			]
		},
		{
			"name":"Catdoll",
			"primitives":[
				{
					"attributes":{
						"POSITION":5,
						"NORMAL":6,
						"TEXCOORD_0":7,
						"TEXCOORD_1":8
					},
					"indices":9,
					"material":1
				}
			]
		},
		{
			"name":"Desk",
			"primitives":[
				{
					"attributes":{
						"POSITION":10,
						"NORMAL":11,
						"TEXCOORD_0":12,
						"TEXCOORD_1":13
					},
					"indices":14,
					"material":2
				}
			]
		},
		{
			"name":"Items",
			"primitives":[
				{
					"attributes":{
						"POSITION":15,
						"NORMAL":16,
						"TEXCOORD_0":17,
						"TEXCOORD_1":18
					},
					"indices":19,
					"material":3
				}
			]
		},
		{
			"name":"Lamp",
			"primitives":[
				{
					"attributes":{
						"POSITION":20,
						"NORMAL":21,
						"TEXCOORD_0":22,
						"TEXCOORD_1":23
					},
					"indices":24,
					"material":4
				},
				{
					"attributes":{
						"POSITION":25,
						"NORMAL":26,
						"TEXCOORD_0":27,
						"TEXCOORD_1":28
					},
					"indices":29,
					"material":5
				}
			]
		},
		{
			"name":"PenHolder",
			"primitives":[
				{
					"attributes":{
						"POSITION":30,
						"NORMAL":31,
						"TEXCOORD_0":32,
						"TEXCOORD_1":33,
						"TEXCOORD_2":34
					},
					"indices":35,
					"material":6
				}
			]
		},
		{
			"name":"Rug",
			"primitives":[
				{
					"attributes":{
						"POSITION":36,
						"NORMAL":37,
						"TEXCOORD_0":38
					},
					"indices":39,
					"material":7
				},
				{
					"attributes":{
						"POSITION":40,
						"NORMAL":41,
						"TEXCOORD_0":42
					},
					"indices":43,
					"material":8
				}
			]
		}
	],
	"textures":[
		{
			"sampler":0,
			"source":0
		},
		{
			"sampler":0,
			"source":0
		},
		{
			"sampler":0,
			"source":1
		},
		{
			"sampler":0,
			"source":2
		},
		{
			"sampler":0,
			"source":0
		},
		{
			"sampler":0,
			"source":3
		},
		{
			"sampler":0,
			"source":2
		},
		{
			"sampler":0,
			"source":0
		},
		{
			"sampler":0,
			"source":3
		},
		{
			"sampler":0,
			"source":4
		},
		{
			"sampler":0,
			"source":5
		},
		{
			"sampler":0,
			"source":6
		},
		{
			"sampler":0,
			"source":7
		},
		{
			"sampler":0,
			"source":8
		}
	],
	"images":[
		{
			"mimeType":"image/png",
			"name":"bake_workspace_basecolor_final",
			"uri":"textures/bake_workspace_basecolor_final.png"
		},
		{
			"mimeType":"image/png",
			"name":"Image_0",
			"uri":"textures/Image_0.png"
		},
		{
			"mimeType":"image/png",
			"name":"bake_workspace_normal_final",
			"uri":"textures/bake_workspace_normal_final.png"
		},
		{
			"mimeType":"image/png",
			"name":"bake_workspace_metalic_final-bake_half",
			"uri":"textures/bake_workspace_metalic_final-bake_half.png"
		},
		{
			"mimeType":"image/png",
			"name":"bake_lamp_basecolor_final",
			"uri":"textures/bake_lamp_basecolor_final.png"
		},
		{
			"mimeType":"image/png",
			"name":"bake_lamp_metalic_final",
			"uri":"textures/bake_lamp_metalic_final.png"
		},
		{
			"mimeType":"image/png",
			"name":"bake_pensil_basecolor_final",
			"uri":"textures/bake_pensil_basecolor_final.png"
		},
		{
			"mimeType":"image/png",
			"name":"bake_pensil_roughness_final",
			"uri":"textures/bake_pensil_roughness_final.png"
		},
		{
			"mimeType":"image/jpeg",
			"name":"Image_0",
			"uri":"textures/Image_0.jpg"
		}
	],
	"accessors":[
		{
			"bufferView":0,
			"componentType":5126,
			"count":742,
			"max":[
				1.1925938129425049,
				3.1310765743255615,
				1.2832062244415283
			],
			"min":[
				-1.1925933361053467,
				-0.06811095029115677,
				-2.5012452602386475
			],
			"type":"VEC3"
		},
		{
			"bufferView":1,
			"componentType":5126,
			"count":742,
			"type":"VEC3"
		},
		{
			"bufferView":2,
			"componentType":5126,
			"count":742,
			"type":"VEC2"
		},
		{
			"bufferView":3,
			"componentType":5126,
			"count":742,
			"type":"VEC2"
		},
		{
			"bufferView":4,
			"componentType":5123,
			"count":3036,
			"type":"SCALAR"
		},
		{
			"bufferView":5,
			"componentType":5126,
			"count":5562,
			"max":[
				4.164743423461914,
				8.623390197753906,
				3.800908327102661
			],
			"min":[
				-4.092409610748291,
				-0.2794688940048218,
				-3.6498830318450928
			],
			"type":"VEC3"
		},
		{
			"bufferView":6,
			"componentType":5126,
			"count":5562,
			"type":"VEC3"
		},
		{
			"bufferView":7,
			"componentType":5126,
			"count":5562,
			"type":"VEC2"
		},
		{
			"bufferView":8,
			"componentType":5126,
			"count":5562,
			"type":"VEC2"
		},
		{
			"bufferView":9,
			"componentType":5123,
			"count":9321,
			"type":"SCALAR"
		},
		{
			"bufferView":10,
			"componentType":5126,
			"count":1034,
			"max":[
				0.30000001192092896,
				0.6337839365005493,
				0.6250001192092896
			],
			"min":[
				-0.3080403208732605,
				0.01768939383327961,
				-0.6249999403953552
			],
			"type":"VEC3"
		},
		{
			"bufferView":11,
			"componentType":5126,
			"count":1034,
			"type":"VEC3"
		},
		{
			"bufferView":12,
			"componentType":5126,
			"count":1034,
			"type":"VEC2"
		},
		{
			"bufferView":13,
			"componentType":5126,
			"count":1034,
			"type":"VEC2"
		},
		{
			"bufferView":14,
			"componentType":5123,
			"count":1773,
			"type":"SCALAR"
		},
		{
			"bufferView":15,
			"componentType":5126,
			"count":11087,
			"max":[
				1.5132780075073242,
				0.2125840038061142,
				0.5699942111968994
			],
			"min":[
				-0.3964548707008362,
				-0.9828959703445435,
				-0.5891259908676147
			],
			"type":"VEC3"
		},
		{
			"bufferView":16,
			"componentType":5126,
			"count":11087,
			"type":"VEC3"
		},
		{
			"bufferView":17,
			"componentType":5126,
			"count":11087,
			"type":"VEC2"
		},
		{
			"bufferView":18,
			"componentType":5126,
			"count":11087,
			"type":"VEC2"
		},
		{
			"bufferView":19,
			"componentType":5123,
			"count":27117,
			"type":"SCALAR"
		},
		{
			"bufferView":20,
			"componentType":5126,
			"count":2500,
			"max":[
				0.051505036652088165,
				1.2997300624847412,
				-0.41688913106918335
			],
			"min":[
				0.005034086760133505,
				1.2349205017089844,
				-0.4707091450691223
			],
			"type":"VEC3"
		},
		{
			"bufferView":21,
			"componentType":5126,
			"count":2500,
			"type":"VEC3"
		},
		{
			"bufferView":22,
			"componentType":5126,
			"count":2500,
			"type":"VEC2"
		},
		{
			"bufferView":23,
			"componentType":5126,
			"count":2500,
			"type":"VEC2"
		},
		{
			"bufferView":24,
			"componentType":5123,
			"count":3048,
			"type":"SCALAR"
		},
		{
			"bufferView":25,
			"componentType":5126,
			"count":3162,
			"max":[
				0.13706403970718384,
				1.3841209411621094,
				0.27437302470207214
			],
			"min":[
				-0.11854924261569977,
				-0.01052534207701683,
				-0.5900870561599731
			],
			"type":"VEC3"
		},
		{
			"bufferView":26,
			"componentType":5126,
			"count":3162,
			"type":"VEC3"
		},
		{
			"bufferView":27,
			"componentType":5126,
			"count":3162,
			"type":"VEC2"
		},
		{
			"bufferView":28,
			"componentType":5126,
			"count":3162,
			"type":"VEC2"
		},
		{
			"bufferView":29,
			"componentType":5123,
			"count":4914,
			"type":"SCALAR"
		},
		{
			"bufferView":30,
			"componentType":5126,
			"count":577,
			"max":[
				0.041485726833343506,
				0.1603151559829712,
				0.056209251284599304
			],
			"min":[
				-0.04741064831614494,
				0.0001226865133503452,
				-0.06504222005605698
			],
			"type":"VEC3"
		},
		{
			"bufferView":31,
			"componentType":5126,
			"count":577,
			"type":"VEC3"
		},
		{
			"bufferView":32,
			"componentType":5126,
			"count":577,
			"type":"VEC2"
		},
		{
			"bufferView":33,
			"componentType":5126,
			"count":577,
			"type":"VEC2"
		},
		{
			"bufferView":34,
			"componentType":5126,
			"count":577,
			"type":"VEC2"
		},
		{
			"bufferView":35,
			"componentType":5123,
			"count":1149,
			"type":"SCALAR"
		},
		{
			"bufferView":36,
			"componentType":5126,
			"count":133,
			"max":[
				2.366518497467041,
				0.019902028143405914,
				2.368539571762085
			],
			"min":[
				-2.3685388565063477,
				-0.010943987406790257,
				-2.368539571762085
			],
			"type":"VEC3"
		},
		{
			"bufferView":37,
			"componentType":5126,
			"count":133,
			"type":"VEC3"
		},
		{
			"bufferView":38,
			"componentType":5126,
			"count":133,
			"type":"VEC2"
		},
		{
			"bufferView":39,
			"componentType":5123,
			"count":684,
			"type":"SCALAR"
		},
		{
			"bufferView":40,
			"componentType":5126,
			"count":64,
			"max":[
				2.3142170906066895,
				0.01989947259426117,
				2.314216375350952
			],
			"min":[
				-2.3142170906066895,
				0.019898071885108948,
				-2.314216375350952
			],
			"type":"VEC3"
		},
		{
			"bufferView":41,
			"componentType":5126,
			"count":64,
			"type":"VEC3"
		},
		{
			"bufferView":42,
			"componentType":5126,
			"count":64,
			"type":"VEC2"
		},
		{
			"bufferView":43,
			"componentType":5123,
			"count":186,
			"type":"SCALAR"
		}
	],
	"bufferViews":[
		{
			"buffer":0,
			"byteLength":8904,
			"byteOffset":0,
			"target":34962
		},
		{
			"buffer":0,
			"byteLength":8904,
			"byteOffset":8904,
			"target":34962
		},
		{
			"buffer":0,
			"byteLength":5936,
			"byteOffset":17808,
			"target":34962
		},
		{
			"buffer":0,
			"byteLength":5936,
			"byteOffset":23744,
			"target":34962
		},
		{
			"buffer":0,
			"byteLength":6072,
			"byteOffset":29680,
			"target":34963
		},
		{
			"buffer":0,
			"byteLength":66744,
			"byteOffset":35752,
			"target":34962
		},
		{
			"buffer":0,
			"byteLength":66744,
			"byteOffset":102496,
			"target":34962
		},
		{
			"buffer":0,
			"byteLength":44496,
			"byteOffset":169240,
			"target":34962
		},
		{
			"buffer":0,
			"byteLength":44496,
			"byteOffset":213736,
			"target":34962
		},
		{
			"buffer":0,
			"byteLength":18642,
			"byteOffset":258232,
			"target":34963
		},
		{
			"buffer":0,
			"byteLength":12408,
			"byteOffset":276876,
			"target":34962
		},
		{
			"buffer":0,
			"byteLength":12408,
			"byteOffset":289284,
			"target":34962
		},
		{
			"buffer":0,
			"byteLength":8272,
			"byteOffset":301692,
			"target":34962
		},
		{
			"buffer":0,
			"byteLength":8272,
			"byteOffset":309964,
			"target":34962
		},
		{
			"buffer":0,
			"byteLength":3546,
			"byteOffset":318236,
			"target":34963
		},
		{
			"buffer":0,
			"byteLength":133044,
			"byteOffset":321784,
			"target":34962
		},
		{
			"buffer":0,
			"byteLength":133044,
			"byteOffset":454828,
			"target":34962
		},
		{
			"buffer":0,
			"byteLength":88696,
			"byteOffset":587872,
			"target":34962
		},
		{
			"buffer":0,
			"byteLength":88696,
			"byteOffset":676568,
			"target":34962
		},
		{
			"buffer":0,
			"byteLength":54234,
			"byteOffset":765264,
			"target":34963
		},
		{
			"buffer":0,
			"byteLength":30000,
			"byteOffset":819500,
			"target":34962
		},
		{
			"buffer":0,
			"byteLength":30000,
			"byteOffset":849500,
			"target":34962
		},
		{
			"buffer":0,
			"byteLength":20000,
			"byteOffset":879500,
			"target":34962
		},
		{
			"buffer":0,
			"byteLength":20000,
			"byteOffset":899500,
			"target":34962
		},
		{
			"buffer":0,
			"byteLength":6096,
			"byteOffset":919500,
			"target":34963
		},
		{
			"buffer":0,
			"byteLength":37944,
			"byteOffset":925596,
			"target":34962
		},
		{
			"buffer":0,
			"byteLength":37944,
			"byteOffset":963540,
			"target":34962
		},
		{
			"buffer":0,
			"byteLength":25296,
			"byteOffset":1001484,
			"target":34962
		},
		{
			"buffer":0,
			"byteLength":25296,
			"byteOffset":1026780,
			"target":34962
		},
		{
			"buffer":0,
			"byteLength":9828,
			"byteOffset":1052076,
			"target":34963
		},
		{
			"buffer":0,
			"byteLength":6924,
			"byteOffset":1061904,
			"target":34962
		},
		{
			"buffer":0,
			"byteLength":6924,
			"byteOffset":1068828,
			"target":34962
		},
		{
			"buffer":0,
			"byteLength":4616,
			"byteOffset":1075752,
			"target":34962
		},
		{
			"buffer":0,
			"byteLength":4616,
			"byteOffset":1080368,
			"target":34962
		},
		{
			"buffer":0,
			"byteLength":4616,
			"byteOffset":1084984,
			"target":34962
		},
		{
			"buffer":0,
			"byteLength":2298,
			"byteOffset":1089600,
			"target":34963
		},
		{
			"buffer":0,
			"byteLength":1596,
			"byteOffset":1091900,
			"target":34962
		},
		{
			"buffer":0,
			"byteLength":1596,
			"byteOffset":1093496,
			"target":34962
		},
		{
			"buffer":0,
			"byteLength":1064,
			"byteOffset":1095092,
			"target":34962
		},
		{
			"buffer":0,
			"byteLength":1368,
			"byteOffset":1096156,
			"target":34963
		},
		{
			"buffer":0,
			"byteLength":768,
			"byteOffset":1097524,
			"target":34962
		},
		{
			"buffer":0,
			"byteLength":768,
			"byteOffset":1098292,
			"target":34962
		},
		{
			"buffer":0,
			"byteLength":512,
			"byteOffset":1099060,
			"target":34962
		},
		{
			"buffer":0,
			"byteLength":372,
			"byteOffset":1099572,
			"target":34963
		}
	],
	"samplers":[
		{
			"magFilter":9729,
			"minFilter":9987
		}
	],
	"buffers":[
		{
			"byteLength":1099944,
			"uri":"workspace_final.bin"
		}
	]
}
